<svg width="1200" height="630" viewBox="0 0 1200 630" xmlns="http://www.w3.org/2000/svg" font-family="system-ui,-apple-system,sans-serif">
  <defs>
    <linearGradient id="bg" x1="0" y1="0" x2="1" y2="1">
      <stop offset="0" stop-color="#eff6ff"/>
      <stop offset="0.62" stop-color="#f8fafc"/>
      <stop offset="1" stop-color="#f0fdf4"/>
    </linearGradient>
    <linearGradient id="brand" x1="0" y1="0" x2="1" y2="1">
      <stop offset="0" stop-color="#2563eb"/>
      <stop offset="1" stop-color="#4f46e5"/>
    </linearGradient>
    <filter id="shadow" x="-15%" y="-15%" width="130%" height="140%">
      <feDropShadow dx="0" dy="6" stdDeviation="14" flood-color="#0f172a" flood-opacity="0.10"/>
    </filter>
  </defs>
  <rect width="1200" height="630" fill="url(#bg)"/>
  <rect x="60" y="54" width="52" height="52" rx="14" fill="url(#brand)"/>
  <polyline points="74,94 84,79 94,86 106,69" stroke="#fff" stroke-width="4" stroke-linecap="round" stroke-linejoin="round" fill="none"/>
  <circle cx="106" cy="69" r="4.5" fill="#34d399"/>
  <text x="128" y="89" font-size="32" font-weight="800" fill="#0f172a">GeoScore</text>
  <text x="60" y="192" font-size="54" font-weight="800" fill="#0f172a">Evidence-first SEO + GEO audit</text>
  <text x="60" y="240" font-size="24" fill="#475569">证据优先的网站 SEO 与 GEO 审查</text>
  <text x="60" y="292" font-size="20" fill="#64748b">Factual readiness, sampled pages, and evidence-linked repair tasks.</text>
  <g filter="url(#shadow)">
    <rect x="60" y="350" width="250" height="150" rx="18" fill="#fff"/>
    <rect x="330" y="350" width="250" height="150" rx="18" fill="#fff"/>
    <rect x="600" y="350" width="250" height="150" rx="18" fill="#fff"/>
    <rect x="870" y="350" width="250" height="150" rx="18" fill="#fff"/>
  </g>
  <circle cx="105" cy="395" r="22" fill="#dbeafe"/><text x="105" y="402" text-anchor="middle" font-size="20" fill="#2563eb">◎</text>
  <text x="85" y="444" font-size="18" font-weight="700" fill="#0f172a">Site profile</text>
  <text x="85" y="472" font-size="14" fill="#64748b">Type + confidence</text>
  <circle cx="375" cy="395" r="22" fill="#dcfce7"/><text x="375" y="402" text-anchor="middle" font-size="20" fill="#15803d">5</text>
  <text x="355" y="444" font-size="18" font-weight="700" fill="#0f172a">Sampled pages</text>
  <text x="355" y="472" font-size="14" fill="#64748b">Up to five HTML pages</text>
  <circle cx="645" cy="395" r="22" fill="#ede9fe"/><text x="645" y="402" text-anchor="middle" font-size="20" fill="#6d28d9">✓</text>
  <text x="625" y="444" font-size="18" font-weight="700" fill="#0f172a">Factual checks</text>
  <text x="625" y="472" font-size="14" fill="#64748b">Evidence + coverage</text>
  <circle cx="915" cy="395" r="22" fill="#ffedd5"/><text x="915" y="402" text-anchor="middle" font-size="20" fill="#c2410c">↗</text>
  <text x="895" y="444" font-size="18" font-weight="700" fill="#0f172a">Repair plan</text>
  <text x="895" y="472" font-size="14" fill="#64748b">Fix + verify each failure</text>
  <rect x="60" y="548" width="590" height="34" rx="17" fill="#f1f5f9"/>
  <text x="355" y="570" text-anchor="middle" font-size="13" fill="#475569">Predicted simulations are separate and have zero scoring weight</text>
  <rect x="900" y="540" width="240" height="50" rx="25" fill="url(#brand)"/>
  <text x="1020" y="572" text-anchor="middle" font-size="17" font-weight="700" fill="#fff">geo.sayori.org</text>
</svg>
